HIERARCHY
ROOT Hips
{
    OFFSET 0.0 0.0 0.0
    CHANNELS 6 Xposition Yposition Zposition Zrotation Xrotation Yrotation
    JOINT Spine
    {
        OFFSET 0.0 5.0 0.0
        CHANNELS 3 Zrotation Xrotation Yrotation
        JOINT Chest
        {
            OFFSET 0.0 5.0 0.0
            CHANNELS 3 Zrotation Xrotation Yrotation
            JOINT Neck
            {
                OFFSET 0.0 8.0 0.0
                CHANNELS 3 Zrotation Xrotation Yrotation
                JOINT Head
                {
                    OFFSET 0.0 5.0 0.0
                    CHANNELS 3 Zrotation Xrotation Yrotation
                    End Site
                    {
                        OFFSET 0.0 3.0 0.0
                    }
                }
            }
            JOINT LeftShoulder
            {
                OFFSET -5.0 0.0 0.0
                CHANNELS 3 Zrotation Xrotation Yrotation
                JOINT LeftArm
                {
                    OFFSET 0.0 -10.0 0.0
                    CHANNELS 3 Zrotation Xrotation Yrotation
                    JOINT LeftForeArm
                    {
                        OFFSET 0.0 -10.0 0.0
                        CHANNELS 3 Zrotation Xrotation Yrotation
                        End Site
                        {
                            OFFSET 0.0 -3.0 0.0
                        }
                    }
                }
            }
        }
    }
}

MOTION
Frames: 37
Frame Time: 0.033333
970.000000 442.938926 143.248986 0.000000 0.000000 0.000000 0.000000 0.000000 0.000000 29.678605 -5.021638 0.000000 180.000000 0.387943 0.000000 29.744881 -8.925961 -0.000000 150.255119 -5.139881 30.000000 19.983107 -3.672552 0.000000 18.000000 0.894348 0.000000
1354.522934 467.411410 116.589595 0.000000 0.000000 0.000000 0.000000 0.000000 0.000000 150.622570 -5.731144 4.973798 -29.377430 16.329372 4.973798 140.176400 -2.171605 3.759997 -12.221629 4.828888 29.763441 132.794256 -5.120152 -3.759997 -2.626015 0.907625 0.313953
969.997807 442.887864 109.252717 0.000000 0.000000 0.000000 0.000000 0.000000 0.000000 31.061399 -5.237699 9.635073 180.000000 18.640552 9.635073 30.285790 -7.583444 7.460697 149.714210 7.736082 29.057495 19.151579 -1.281381 -7.460697 18.000000 0.751414 0.626666
1246.736984 514.278152 110.015570 0.000000 0.000000 0.000000 0.000000 0.000000 0.000000 143.557092 -3.873337 13.690942 -36.442908 13.609708 13.690942 133.761037 0.873022 11.043737 -156.950665 -5.324203 27.893295 0.000000 0.000000 0.000000 1.928484 0.419653 0.936907
1245.221100 458.637464 125.643864 0.000000 0.000000 0.000000 0.000000 0.000000 0.000000 160.701064 14.434504 16.886559 -19.298936 -10.022960 16.886559 140.193827 -9.152981 14.452610 -157.554825 -5.773310 26.289200 29.500467 5.000446 -14.452610 -15.049953 -0.500045 1.243449
1257.365570 418.514181 99.998787 0.000000 0.000000 0.000000 0.000000 0.000000 0.000000 -143.710676 2.242627 19.021130 36.289324 -2.032385 19.021130 163.220413 1.495748 17.633558 11.688054 -1.349632 24.270510 152.038385 1.199317 -17.633558 -2.339948 -0.122301 1.545085
1275.099564 408.163741 107.159524 0.000000 0.000000 0.000000 0.000000 0.000000 0.000000 -132.929531 -11.281812 19.960535 47.070469 1.138066 19.960535 173.491912 4.870002 20.536413 -160.709681 -4.533382 21.869059 33.138793 5.538928 -20.536413 -14.686121 -0.553893 1.840623
1290.611115 384.880857 110.373234 0.000000 0.000000 0.000000 0.000000 0.000000 0.000000 -132.705235 -3.505107 19.645745 47.294765 0.794204 19.645745 -173.778854 2.984187 23.115397 20.496835 1.918324 19.122720 -161.220290 -3.833896 -23.115397 1.723235 0.338296 2.128896
1302.817154 380.305352 99.339616 0.000000 0.000000 0.000000 0.000000 0.000000 0.000000 -131.493915 -0.385196 18.096541 48.506085 8.296496 18.096541 -165.393697 -3.320134 25.329838 23.154815 1.723912 16.074804 -178.200316 -2.430374 -25.329838 0.138141 0.114511 2.408768
1304.997711 379.563582 84.163203 0.000000 0.000000 0.000000 0.000000 0.000000 0.000000 -126.727972 -4.976581 15.410265 53.272028 7.332013 15.410265 -160.219593 -2.180117 27.144812 28.448880 -0.847746 12.773379 -174.368770 2.245088 -27.144812 0.079526 -0.149597 2.679134
1311.668472 386.890390 89.469607 0.000000 0.000000 0.000000 0.000000 0.000000 0.000000 -122.308728 1.376413 11.755705 57.691272 -6.322776 11.755705 -158.801130 1.442120 28.531695 150.942637 3.907451 9.270510 -154.878332 -5.067883 -28.531695 2.695409 0.509917 2.938926
1305.131836 395.180186 91.410006 0.000000 0.000000 0.000000 0.000000 0.000000 0.000000 -125.112810 7.817717 7.362491 54.887190 7.323515 7.362491 -146.487292 -1.545922 29.468618 -175.167369 -0.942447 5.621439 -159.224034 -3.920846 -29.468618 1.782042 0.546852 3.187120
1296.320457 392.734526 78.461940 0.000000 0.000000 0.000000 0.000000 0.000000 0.000000 -131.035750 2.405553 2.506665 48.964250 -1.793228 2.506665 -128.969563 0.317937 29.940802 38.856147 -4.338761 1.883716 -134.776850 -0.311998 -29.940802 3.458429 0.117626 3.422736
1306.963577 386.612041 68.033892 0.000000 0.000000 0.000000 0.000000 0.000000 0.000000 -124.469622 -1.757641 -2.506665 55.530378 -11.437708 -2.506665 -109.994856 1.959795 29.940802 37.691309 -1.416347 -1.883716 -118.274788 -1.377496 -29.940802 5.098336 0.175563 3.644843
969.892723 442.572198 50.725976 0.000000 0.000000 0.000000 0.000000 0.000000 0.000000 41.287575 -23.009399 -7.362491 180.000000 -0.075232 -7.362491 30.974696 5.472711 29.468618 149.025304 -2.317652 -5.621439 15.072869 1.217514 -29.468618 18.000000 0.279751 3.852566
969.876883 442.545207 65.764468 0.000000 0.000000 0.000000 0.000000 0.000000 0.000000 42.241956 -1.104942 -11.755705 180.000000 -5.039731 -11.755705 30.826133 0.694365 28.531695 149.173867 -9.539322 -9.270510 14.823070 0.718739 -28.531695 18.000000 0.621263 4.045085
969.859960 442.518116 61.509292 0.000000 0.000000 0.000000 0.000000 0.000000 0.000000 43.199779 12.805109 -15.410265 180.000000 14.335778 -15.410265 30.649504 -13.233299 27.144812 149.350496 17.570942 -12.773379 14.587557 -6.857885 -27.144812 18.000000 0.043121 4.221640
969.841956 442.490926 47.479247 0.000000 0.000000 0.000000 0.000000 0.000000 0.000000 44.157210 18.867006 -18.096541 180.000000 7.629749 -18.096541 30.446417 0.114128 25.329838 149.553583 1.751875 -16.074804 14.366154 -0.455763 -25.329838 18.000000 0.037861 4.381533
969.822873 442.463637 41.727081 0.000000 0.000000 0.000000 0.000000 0.000000 0.000000 45.110117 -16.134544 -19.645745 180.000000 -4.766151 -19.645745 30.218633 -8.331480 23.115397 149.781367 -1.395153 -19.122720 14.158653 -1.012687 -23.115397 18.000000 0.245591 4.524135
969.802712 442.436251 59.112812 0.000000 0.000000 0.000000 0.000000 0.000000 0.000000 46.054109 17.831720 -19.960535 180.000000 4.400564 -19.960535 29.968037 5.828028 20.536413 150.031963 -0.740181 -21.869059 13.964823 -0.206139 -20.536413 18.000000 0.235603 4.648882
1187.040939 541.658249 56.263532 0.000000 0.000000 0.000000 0.000000 0.000000 0.000000 82.806623 -14.191206 -19.021130 -97.193377 -3.107555 -19.021130 45.395981 8.648613 17.633558 -156.144455 -2.636099 -24.270510 0.000000 0.000000 0.000000 0.000000 0.000000 0.000000
1182.242889 522.024286 45.858161 0.000000 0.000000 0.000000 0.000000 0.000000 0.000000 -105.721938 -14.041418 -16.886559 74.278062 -13.556418 -16.886559 -155.708006 -1.767544 14.452610 -157.302521 -2.309400 -26.289200 0.000000 0.000000 0.000000 2.684983 0.123682 4.842916
1180.914459 527.065626 55.472464 0.000000 0.000000 0.000000 0.000000 0.000000 0.000000 88.055617 -8.070401 -13.690942 -91.944383 4.056664 -13.690942 -158.862018 -2.516443 11.043737 -151.747289 -1.818065 -27.893295 0.000000 0.000000 0.000000 0.000000 0.000000 0.000000
1236.800194 541.387432 51.379921 0.000000 0.000000 0.000000 0.000000 0.000000 0.000000 -85.588400 -5.441062 -9.635073 94.411600 14.055321 -9.635073 -159.297106 -4.628982 7.460697 -157.915391 -2.018242 -29.057495 26.607362 2.119569 -7.460697 14.926890 -0.454259 4.960574
1161.066513 575.006626 59.265894 0.000000 0.000000 0.000000 0.000000 0.000000 0.000000 -81.021168 16.641555 -4.973798 98.978832 -3.350388 -4.973798 -102.851701 7.688059 3.759997 -157.041007 -2.847153 -29.763441 21.429890 1.670752 -3.759997 10.859432 0.653830 4.990134
1255.636253 512.645942 50.879500 0.000000 0.000000 0.000000 0.000000 0.000000 0.000000 77.832564 -1.609922 -0.000000 -102.167436 3.337700 -0.000000 -158.264834 -2.983082 0.000000 -130.745502 1.088733 -30.000000 -157.699225 -3.148195 -0.000000 0.000000 0.000000 0.000000
1265.118484 521.473864 59.954172 0.000000 0.000000 0.000000 0.000000 0.000000 0.000000 64.078276 -7.348111 4.973798 -115.921724 3.138482 4.973798 41.397952 3.381723 -3.759997 -139.329851 5.515758 -29.763441 20.223252 -4.036085 3.759997 -16.047574 0.180405 4.990134
1228.099480 522.138258 53.217979 0.000000 0.000000 0.000000 0.000000 0.000000 0.000000 71.050901 5.224952 9.635073 -108.949099 -2.872379 9.635073 150.099970 4.445759 -7.460697 -139.894702 2.914934 -29.057495 -156.275691 -4.076479 7.460697 0.000000 0.000000 0.000000
1240.357246 528.695873 42.639270 0.000000 0.000000 0.000000 0.000000 0.000000 0.000000 65.413351 -20.870139 13.690942 -114.586649 2.462361 13.690942 147.242328 -4.470990 -11.043737 -154.470720 -2.384512 -27.893295 25.557225 3.363715 11.043737 -15.444278 -0.336372 4.911436
1231.815262 551.380248 46.734743 0.000000 0.000000 0.000000 0.000000 0.000000 0.000000 56.412506 5.134369 16.886559 -123.587494 -5.534942 16.886559 -153.392336 6.110383 -14.452610 -154.784582 -2.697649 -26.289200 24.191555 3.354211 14.452610 -15.580844 -0.335421 4.842916
1221.475182 508.360147 69.929400 0.000000 0.000000 0.000000 0.000000 0.000000 0.000000 77.450622 -8.203765 19.021130 -102.549378 4.381984 19.021130 -156.789784 -3.463587 -17.633558 -125.590168 -4.470763 -24.270510 -160.017240 -2.530364 17.633558 1.833434 0.495122 4.755283
969.477684 442.100429 59.198746 0.000000 0.000000 0.000000 0.000000 0.000000 0.000000 54.932575 36.574932 19.960535 180.000000 0.166998 19.960535 25.919122 4.083264 -20.536413 154.080878 2.553458 -21.869059 12.612867 5.385893 20.536413 18.000000 -0.366391 4.648882
1480.140495 518.878891 57.763301 0.000000 0.000000 0.000000 0.000000 0.000000 0.000000 -110.621767 85.296543 19.645745 69.378233 81.331919 19.645745 -158.235933 -3.008540 -23.115397 166.031448 -9.538849 -19.122720 -155.186432 -2.162639 23.115397 2.641553 0.289691 4.524135
1271.640472 556.840560 81.716389 0.000000 0.000000 0.000000 0.000000 0.000000 0.000000 -94.404719 5.378025 18.096541 85.595281 -1.750313 18.096541 -62.417786 1.737929 -25.329838 23.992813 4.384935 -16.074804 -76.856107 -0.645944 25.329838 7.708835 -0.089138 4.381533
1258.556786 530.268441 76.551867 0.000000 0.000000 0.000000 0.000000 0.000000 0.000000 78.355945 1.077235 15.410265 -101.644055 0.624410 15.410265 35.068294 2.721669 -27.144812 -54.090640 -1.471713 -12.773379 35.848220 -0.881129 27.144812 -8.104639 0.025628 4.221640
1250.800209 527.150567 83.603859 0.000000 0.000000 0.000000 0.000000 0.000000 0.000000 72.417769 4.783621 11.755705 -107.582231 0.253703 11.755705 24.571109 2.024871 -28.531695 -39.196117 4.073979 -9.270510 10.411117 0.207158 28.531695 -9.048616 0.167259 4.045085
1243.466148 571.776259 96.119644 0.000000 0.000000 0.000000 0.000000 0.000000 0.000000 86.301473 8.503419 7.362491 -93.698527 -18.806482 7.362491 24.553534 -1.530318 -29.468618 -153.460385 -4.748491 -5.621439 19.510484 3.161746 29.468618 -10.109500 -1.651337 3.852566
